<?xml version="1.0" encoding="UTF-8" standalone="no"?>
<svg
   xmlns:dc="http://purl.org/dc/elements/1.1/"
   xmlns:cc="http://creativecommons.org/ns#"
   xmlns:rdf="http://www.w3.org/1999/02/22-rdf-syntax-ns#"
   xmlns:svg="http://www.w3.org/2000/svg"
   xmlns="http://www.w3.org/2000/svg"
   id="svg49"
   xml:space="preserve"
   viewBox="340 323 342 142"
   preserveAspectRatio="xMidYMad meet"
   y="0px"
   x="0px"
   version="1.1"><metadata
     id="metadata55"><rdf:RDF><cc:Work
         rdf:about=""><dc:format>image/svg+xml</dc:format><dc:type
           rdf:resource="http://purl.org/dc/dcmitype/StillImage" /></cc:Work></rdf:RDF></metadata><defs
     id="defs53" /><style
     id="style2">
#logo-fade{
opacity: 0;
animation: fadeIn 4s ease-in forwards;
}

@keyframes fadeIn { 0% { opacity:0; } 50% { opacity:0; } 100% { opacity:1; } }
@keyframes fadeOut { from { opacity:1; } to { opacity:0; } }

#outline{
opacity: 1;
stroke-dasharray: 2000;
stroke-dashoffset: 2000;
animation: dash 4s ease-in-out forwards;
}

@keyframes dash {
  0% {
    opacity: 1;
    stroke-dashoffset: 2000;
  }
  50% {
    opacity: 1;
    stroke-dashoffset: 1000;
  }
  100% {
    opacity: 0;
    stroke-dashoffset: 0;
  }
}
</style><path
     stroke-width="4"
     stroke="#00d045"
     fill="none"
     d="m736.96 313.07c-11.36 0-22.73 4.35-33.84 13.03l7.4 14.94c7.92-7.02 16.35-10.98 23.12-10.98l0.26-0.13c6.64 0 10.6 3.45 10.6 9.2 0 4.21-3.19 10.47-8.43 16.35l-30.53 34.23v13.67h62.46v-16.48h-37.42l18.77-21.2c10.86-11.88 15.97-21.33 15.97-29.76 0-13.67-11.37-22.87-28.36-22.87zm-82.9 1.03l-35.38 54.92v14.3h40.74v20.06h18.4v-20.06h11.62v-15.71h-11.62v-53.51h-23.76zm-276.25 0.38v89.41h17.63v-62.97l22.22 53.9h13.03l37.94-80.34h-16.73l-27.72 55.69-24.02-55.69h-22.35zm117.73 0.13v89.41h20.06v-29.25h16.48c21.46 0 33.72-10.09 33.72-30.91 0-19.67-12.26-29.25-33.72-29.25h-36.54zm-187.52 0.99c-0.01 0-3.69 6.31-8.19 14.01l-8.18 14.02h-35.65v3.26h16.87c9.27 0 16.86 0.01 16.86 0.02s-1.53 2.63-3.39 5.82l-3.39 5.81h-13.47-13.48v3.24l12.53 0.01h12.52l-3.39 5.81-3.39 5.81-9.14 0.01-9.13 0.01v3.26l8.18 0.01 8.17 0.01-8.16 13.99c-4.49 7.69-8.17 14-8.18 14.02-0.01 0.03 10.4 0.04 52.01 0.04 28.61 0 52.03-0.01 52.03-0.02s-7.59-13.02-16.87-28.91c-9.27-15.9-16.86-28.91-16.86-28.92s7.59-0.02 16.86-0.02h16.86v-3.26h-35.65l-8.18-14.02c-4.5-7.71-8.18-14.01-8.19-14.01zm0 6.44c0.01 0 2.85 4.85 6.31 10.79l6.29 10.78-6.3 0.01c-3.46 0.01-9.13 0.01-12.59 0l-6.3-0.01 6.29-10.78c3.46-5.94 6.29-10.79 6.3-10.79zm207.45 9.04h15.46c10.35 0 16.09 3.71 16.09 13.54 0 9.97-5.87 13.8-16.09 13.8h-15.46v-27.34zm143.95 4.22v32.31h-20.56l20.56-32.31zm-189 5.36c-11.24 7.03-17.37 24.27-17.63 24.79l0.13 0.12 0.13 38.32h17.37v-63.23zm-162.39 6.24l14.51 0.01 3.39 5.81 3.39 5.81h-9.45c-7.55 0.01-9.47 0-9.49-0.03-0.02-0.02-0.55-0.92-1.18-2.01s-1.16-1.98-1.18-1.98c-0.01 0-0.54 0.89-1.17 1.98s-1.16 1.99-1.18 2.01c-0.03 0.03-1.95 0.04-9.49 0.03h-9.46l3.38-5.78c1.85-3.18 3.38-5.8 3.39-5.82 0.02-0.03 2.95-0.04 14.54-0.03zm-13.73 14.88c5.78 0 9.48 0.01 9.47 0.02-0.01 0.02-1.52 2.64-3.36 5.83l-3.36 5.79h-9.5c-5.22 0-9.5 0-9.5-0.01s1.53-2.63 3.39-5.83l3.39-5.8h9.47zm13.72 0h0.48l6.18 10.67c3.39 5.87 6.18 10.7 6.19 10.72l0.02 0.05h-25.74l0.02-0.05c0.01-0.02 2.8-4.85 6.2-10.72l6.17-10.67h0.48zm13.72 0h9.48l11.58 19.85 11.58 19.84-23.18 0.01c-12.75 0.01-33.61 0.01-46.36 0h-23.18l7.23-12.4 7.23-12.39h19.04l-0.14 0.24c-0.08 0.13-1.34 2.31-2.8 4.84-1.47 2.53-2.68 4.62-2.68 4.65-0.02 0.04 2.12 0.04 18.48 0.04 14.79 0 18.5-0.01 18.49-0.04-0.01-0.02-3.21-5.56-7.13-12.32-3.91-6.76-7.11-12.3-7.11-12.31s4.26-0.01 9.47-0.01zm-45.41 70.41l-1.4 17.97h11.09l0.13-1.35h-9.54l0.56-7.09h9l0.13-1.38h-9.02l0.53-6.8h9.54l0.07-1.35h-11.09zm52.78 0l-1.43 17.97h1.55l1.43-17.97h-1.55zm5.68 0l-1.43 17.97h1.55l1.43-17.97h-1.55zm125.47 0l-1.42 17.97h1.55l0.56-7.16c0.1-1.3 0.52-2.31 1.25-3.04 0.75-0.73 1.75-1.09 3.01-1.09 1.97 0 2.96 0.99 2.96 2.98 0 0.25-0.01 0.45-0.03 0.58l-0.61 7.73h1.55l0.62-7.83c0.01-0.15 0.02-0.38 0.02-0.69 0-1.37-0.36-2.41-1.1-3.11-0.73-0.69-1.78-1.04-3.16-1.04-0.93 0-1.77 0.19-2.52 0.58-0.73 0.4-1.31 0.96-1.73 1.69l0.61-7.57h-1.56zm42.48 0l-1.43 17.97h1.56l1.42-17.97h-1.55zm90.31 0l-0.61 7.8c-0.36-0.8-0.91-1.41-1.66-1.84-0.75-0.44-1.62-0.66-2.63-0.66-1.14 0-2.15 0.29-3.03 0.87-0.87 0.56-1.55 1.36-2.04 2.42-0.48 1.03-0.71 2.23-0.71 3.59 0 1.19 0.22 2.24 0.66 3.14s1.06 1.59 1.86 2.09c0.8 0.49 1.72 0.74 2.75 0.74 0.89 0 1.69-0.21 2.42-0.62 0.75-0.4 1.34-0.96 1.76-1.68l-0.18 2.12h1.56l1.4-17.97h-1.55zm21.01 0l-0.61 7.8c-0.36-0.8-0.91-1.41-1.66-1.84-0.75-0.44-1.62-0.66-2.62-0.66-1.14 0-2.16 0.29-3.04 0.87-0.87 0.56-1.55 1.36-2.04 2.42-0.47 1.03-0.71 2.23-0.71 3.59 0 1.19 0.22 2.24 0.66 3.14s1.06 1.59 1.86 2.09c0.8 0.49 1.72 0.74 2.76 0.74 0.88 0 1.69-0.21 2.42-0.62 0.75-0.4 1.33-0.96 1.76-1.68l-0.18 2.12h1.55l1.41-17.97h-1.56zm-214.28 0.38l-0.15 1.96h2.04l0.15-1.96h-2.04zm27.13 1.4l-0.3 3.82h-2.45l-0.1 1.25h2.44l-0.53 6.89c-0.02 0.13-0.03 0.32-0.03 0.56 0 1.22 0.35 2.17 1.05 2.83s1.68 0.99 2.96 0.99c0.41 0 0.78-0.03 1.12-0.1l0.18-1.3c-0.33 0.07-0.69 0.1-1.1 0.1-0.87 0-1.53-0.23-1.99-0.69-0.44-0.45-0.66-1.13-0.66-2.01 0-0.22 0.01-0.39 0.02-0.51l0.54-6.76h3.65l0.07-1.25h-3.62l0.31-3.82h-1.56zm206.64 0l-0.3 3.82h-2.45l-0.1 1.25h2.45l-0.54 6.89c-0.02 0.13-0.02 0.32-0.02 0.56 0 1.22 0.34 2.17 1.04 2.83s1.68 0.99 2.96 0.99c0.41 0 0.78-0.03 1.12-0.1l0.18-1.3c-0.32 0.07-0.69 0.1-1.1 0.1-0.86 0-1.53-0.23-1.99-0.69-0.44-0.45-0.66-1.13-0.66-2.01 0-0.22 0.01-0.39 0.03-0.51l0.53-6.76h3.65l0.07-1.25h-3.62l0.31-3.82h-1.56zm40.19 0l-0.31 3.82h-2.45l-0.1 1.25h2.45l-0.54 6.89c-0.01 0.13-0.02 0.32-0.02 0.56 0 1.22 0.35 2.17 1.04 2.83 0.7 0.66 1.69 0.99 2.96 0.99 0.41 0 0.78-0.03 1.12-0.1l0.18-1.3c-0.32 0.07-0.69 0.1-1.1 0.1-0.86 0-1.52-0.23-1.98-0.69-0.45-0.45-0.67-1.13-0.67-2.01 0-0.22 0.01-0.39 0.03-0.51l0.53-6.76h3.65l0.08-1.25h-3.62l0.3-3.82h-1.55zm30.22 0l-0.3 3.82h-2.45l-0.1 1.25h2.44l-0.53 6.89c-0.02 0.13-0.03 0.32-0.03 0.56 0 1.22 0.35 2.17 1.05 2.83s1.68 0.99 2.96 0.99c0.4 0 0.78-0.03 1.12-0.1l0.18-1.3c-0.33 0.07-0.69 0.1-1.1 0.1-0.87 0-1.53-0.23-1.99-0.69-0.44-0.45-0.66-1.13-0.66-2.01 0-0.22 0.01-0.39 0.02-0.51l0.54-6.76h3.65l0.07-1.25h-3.62l0.31-3.82h-1.56zm-395.96 3.52c-1.24 0-2.33 0.29-3.26 0.87-0.92 0.56-1.63 1.36-2.12 2.39-0.49 1.04-0.74 2.24-0.74 3.62 0 1.19 0.22 2.24 0.66 3.14 0.46 0.9 1.11 1.59 1.94 2.09 0.85 0.49 1.83 0.74 2.93 0.74 0.83 0 1.63-0.15 2.37-0.44 0.75-0.3 1.39-0.71 1.92-1.22l-0.51-1.2c-0.65 0.53-1.25 0.91-1.81 1.15-0.55 0.22-1.15 0.33-1.82 0.33-1.29 0-2.29-0.4-3-1.2-0.7-0.81-1.05-1.93-1.05-3.34 0-1.75 0.39-3.12 1.17-4.1 0.79-0.99 1.88-1.48 3.29-1.48 0.7 0 1.34 0.12 1.91 0.36 0.6 0.24 1.22 0.62 1.87 1.14l0.69-1.22c-0.55-0.51-1.2-0.91-1.97-1.2-0.76-0.29-1.59-0.43-2.47-0.43zm12.05 0c-1.23 0-2.3 0.29-3.21 0.87-0.92 0.57-1.63 1.38-2.12 2.42-0.49 1.03-0.74 2.23-0.74 3.59 0 1.82 0.51 3.27 1.53 4.36 1.02 1.07 2.41 1.61 4.18 1.61 0.9 0 1.79-0.15 2.65-0.44 0.87-0.3 1.56-0.71 2.07-1.22l-0.51-1.2c-1.16 0.99-2.54 1.48-4.16 1.48-1.34 0-2.37-0.4-3.08-1.2-0.72-0.8-1.07-1.91-1.07-3.34v-0.25h9.38c0.05-0.44 0.07-0.86 0.07-1.25 0-1.79-0.45-3.14-1.35-4.05-0.88-0.92-2.1-1.38-3.64-1.38zm24.74 0c-1.22 0-2.29 0.29-3.21 0.87-0.92 0.57-1.62 1.38-2.11 2.42-0.5 1.03-0.74 2.23-0.74 3.59 0 1.82 0.51 3.27 1.53 4.36 1.02 1.07 2.41 1.61 4.18 1.61 0.9 0 1.78-0.15 2.65-0.44 0.87-0.3 1.55-0.71 2.06-1.22l-0.51-1.2c-1.15 0.99-2.54 1.48-4.15 1.48-1.34 0-2.37-0.4-3.09-1.2-0.71-0.8-1.07-1.91-1.07-3.34v-0.25h9.38c0.06-0.44 0.08-0.86 0.08-1.25 0-1.79-0.45-3.14-1.35-4.05-0.88-0.92-2.1-1.38-3.65-1.38zm14.27 0c-0.96 0-1.81 0.2-2.55 0.61-0.73 0.41-1.31 0.98-1.74 1.71l0.16-2.02h-1.53l-0.97 12.37h1.55l0.56-7.16c0.1-1.3 0.52-2.31 1.25-3.04 0.75-0.73 1.75-1.09 3.01-1.09 1.97 0 2.96 0.99 2.96 2.98 0 0.25-0.01 0.45-0.03 0.58l-0.61 7.73h1.56l0.61-7.83c0.01-0.15 0.02-0.38 0.02-0.69 0-1.37-0.36-2.41-1.09-3.11-0.73-0.69-1.79-1.04-3.16-1.04zm13.47 0c-1.24 0-2.33 0.29-3.26 0.87-0.92 0.56-1.62 1.36-2.12 2.39-0.49 1.04-0.74 2.24-0.74 3.62 0 1.19 0.22 2.24 0.66 3.14 0.46 0.9 1.11 1.59 1.94 2.09 0.85 0.49 1.83 0.74 2.93 0.74 0.84 0 1.63-0.15 2.37-0.44 0.75-0.3 1.39-0.71 1.92-1.22l-0.51-1.2c-0.65 0.53-1.25 0.91-1.81 1.15-0.55 0.22-1.15 0.33-1.81 0.33-1.29 0-2.3-0.4-3.01-1.2-0.7-0.81-1.05-1.93-1.05-3.34 0-1.75 0.39-3.12 1.18-4.1 0.78-0.99 1.88-1.48 3.29-1.48 0.69 0 1.33 0.12 1.91 0.36 0.59 0.24 1.21 0.62 1.86 1.14l0.69-1.22c-0.55-0.51-1.2-0.91-1.97-1.2-0.76-0.29-1.58-0.43-2.47-0.43zm12.05 0c-1.22 0-2.3 0.29-3.21 0.87-0.92 0.57-1.63 1.38-2.12 2.42-0.49 1.03-0.74 2.23-0.74 3.59 0 1.82 0.51 3.27 1.53 4.36 1.02 1.07 2.42 1.61 4.18 1.61 0.9 0 1.79-0.15 2.65-0.44 0.87-0.3 1.56-0.71 2.07-1.22l-0.51-1.2c-1.16 0.99-2.54 1.48-4.16 1.48-1.34 0-2.37-0.4-3.08-1.2s-1.07-1.91-1.07-3.34v-0.25h9.38c0.05-0.44 0.08-0.86 0.08-1.25 0-1.79-0.45-3.14-1.36-4.05-0.88-0.92-2.09-1.38-3.64-1.38zm26.36 0c-0.95 0-1.8 0.2-2.55 0.61-0.73 0.41-1.31 0.98-1.73 1.71l0.15-2.02h-1.53l-0.97 12.37h1.56l0.56-7.16c0.1-1.3 0.52-2.31 1.25-3.04 0.75-0.73 1.75-1.09 3.01-1.09 1.97 0 2.95 0.99 2.95 2.98 0 0.25-0.01 0.45-0.02 0.58l-0.61 7.73h1.55l0.61-7.83c0.02-0.15 0.03-0.38 0.03-0.69 0-1.37-0.37-2.41-1.1-3.11-0.73-0.69-1.78-1.04-3.16-1.04zm28.16 0c-1.22 0-2.29 0.29-3.21 0.87-0.92 0.57-1.62 1.38-2.11 2.42-0.5 1.03-0.74 2.23-0.74 3.59 0 1.82 0.5 3.27 1.52 4.36 1.02 1.07 2.42 1.61 4.19 1.61 0.9 0 1.78-0.15 2.65-0.44 0.87-0.3 1.55-0.71 2.06-1.22l-0.51-1.2c-1.15 0.99-2.54 1.48-4.15 1.48-1.35 0-2.37-0.4-3.09-1.2-0.71-0.8-1.07-1.91-1.07-3.34v-0.25h9.38c0.05-0.44 0.08-0.86 0.08-1.25 0-1.79-0.45-3.14-1.35-4.05-0.89-0.92-2.1-1.38-3.65-1.38zm13.45 0c-1.24 0-2.33 0.29-3.26 0.87-0.92 0.56-1.63 1.36-2.12 2.39-0.49 1.04-0.74 2.24-0.74 3.62 0 1.19 0.22 2.24 0.66 3.14 0.46 0.9 1.11 1.59 1.94 2.09 0.85 0.49 1.83 0.74 2.93 0.74 0.84 0 1.63-0.15 2.37-0.44 0.75-0.3 1.39-0.71 1.91-1.22l-0.51-1.2c-0.64 0.53-1.24 0.91-1.8 1.15-0.55 0.22-1.15 0.33-1.81 0.33-1.3 0-2.3-0.4-3.01-1.2-0.7-0.81-1.05-1.93-1.05-3.34 0-1.75 0.39-3.12 1.17-4.1 0.79-0.99 1.88-1.48 3.29-1.48 0.7 0 1.34 0.12 1.92 0.36 0.59 0.24 1.21 0.62 1.86 1.14l0.68-1.22c-0.54-0.51-1.19-0.91-1.96-1.2-0.76-0.29-1.59-0.43-2.47-0.43zm27.2 0c-0.95 0-1.8 0.2-2.54 0.61s-1.31 0.98-1.74 1.71l0.15-2.02h-1.52l-0.97 12.37h1.55l0.56-7.16c0.1-1.3 0.52-2.31 1.25-3.04 0.75-0.73 1.75-1.09 3.01-1.09 1.97 0 2.96 0.99 2.96 2.98 0 0.25-0.01 0.45-0.03 0.58l-0.61 7.73h1.56l0.61-7.83c0.01-0.15 0.02-0.38 0.02-0.69 0-1.37-0.36-2.41-1.09-3.11-0.73-0.69-1.79-1.04-3.17-1.04zm13.22 0c-1.15 0-2.18 0.29-3.08 0.87-0.88 0.56-1.57 1.36-2.07 2.39-0.47 1.04-0.71 2.24-0.71 3.62 0 1.19 0.22 2.24 0.66 3.14 0.46 0.9 1.11 1.59 1.94 2.09 0.85 0.49 1.83 0.74 2.93 0.74 1.18 0 2.2-0.28 3.09-0.84 0.9-0.58 1.59-1.39 2.06-2.43 0.5-1.03 0.74-2.23 0.74-3.59 0-1.21-0.23-2.26-0.69-3.16-0.44-0.9-1.08-1.6-1.93-2.09-0.84-0.49-1.81-0.74-2.94-0.74zm19.57 0c-1.15 0-2.18 0.29-3.08 0.87-0.88 0.56-1.57 1.36-2.07 2.39-0.47 1.04-0.71 2.24-0.71 3.62 0 1.19 0.22 2.24 0.66 3.14 0.46 0.9 1.11 1.59 1.94 2.09 0.85 0.49 1.83 0.74 2.93 0.74 1.18 0 2.2-0.28 3.09-0.84 0.9-0.58 1.59-1.39 2.06-2.43 0.49-1.03 0.74-2.23 0.74-3.59 0-1.21-0.23-2.26-0.69-3.16-0.44-0.9-1.09-1.6-1.94-2.09-0.83-0.49-1.81-0.74-2.93-0.74zm13.87 0c-1.16 0-2.17 0.27-3.06 0.81-0.88 0.55-1.56 1.32-2.04 2.32-0.48 0.99-0.71 2.14-0.71 3.45 0 1.73 0.48 3.11 1.45 4.15 0.99 1.04 2.29 1.56 3.93 1.56 0.91 0 1.75-0.21 2.49-0.62 0.77-0.4 1.35-0.98 1.74-1.73l-0.18 2.09c-0.2 2.69-1.56 4.03-4.05 4.03-0.89 0-1.68-0.12-2.37-0.36-0.68-0.22-1.45-0.62-2.3-1.2l-0.69 1.23c1.52 1.14 3.29 1.71 5.33 1.71 3.47 0 5.34-1.83 5.61-5.48l0.92-11.66h-1.56l-0.18 2.22c-0.35-0.8-0.91-1.42-1.68-1.86-0.75-0.44-1.63-0.66-2.65-0.66zm34.36 0c-0.81 0-1.67 0.13-2.57 0.41-0.88 0.27-1.63 0.62-2.24 1.07l0.5 1.22c1.4-0.9 2.82-1.35 4.26-1.35 0.95 0 1.65 0.22 2.09 0.66s0.67 1.14 0.67 2.09c0 0.24-0.01 0.43-0.03 0.56l-0.08 0.87h-0.89c-1.88 0-3.38 0.13-4.49 0.38-1.1 0.24-1.9 0.64-2.39 1.2-0.5 0.55-0.74 1.28-0.74 2.19 0 1.04 0.39 1.89 1.17 2.55 0.78 0.67 1.79 1 3.03 1 0.85 0 1.62-0.2 2.3-0.59s1.22-0.96 1.63-1.71l-0.18 2.12h1.53l0.64-7.95c0.02-0.16 0.03-0.37 0.03-0.64 0-2.72-1.42-4.08-4.24-4.08zm14.24 0c-0.95 0-1.8 0.2-2.55 0.61-0.73 0.41-1.31 0.98-1.73 1.71l0.15-2.02h-1.53l-0.97 12.37h1.56l0.56-7.16c0.1-1.3 0.52-2.31 1.25-3.04 0.74-0.73 1.75-1.09 3-1.09 1.98 0 2.96 0.99 2.96 2.98 0 0.25-0.01 0.45-0.02 0.58l-0.62 7.73h1.56l0.61-7.83c0.02-0.15 0.03-0.38 0.03-0.69 0-1.37-0.37-2.41-1.1-3.11-0.73-0.69-1.78-1.04-3.16-1.04zm49.05 0c-0.82 0-1.67 0.13-2.57 0.41-0.89 0.27-1.64 0.62-2.25 1.07l0.51 1.22c1.4-0.9 2.82-1.35 4.26-1.35 0.95 0 1.65 0.22 2.09 0.66s0.66 1.14 0.66 2.09c0 0.24-0.01 0.43-0.02 0.56l-0.08 0.87h-0.89c-1.89 0-3.38 0.13-4.49 0.38-1.1 0.24-1.9 0.64-2.4 1.2-0.49 0.55-0.73 1.28-0.73 2.19 0 1.04 0.39 1.89 1.17 2.55 0.78 0.67 1.79 1 3.03 1 0.85 0 1.62-0.2 2.3-0.59s1.22-0.96 1.63-1.71l-0.18 2.12h1.53l0.64-7.95c0.01-0.16 0.02-0.37 0.02-0.64 0-2.72-1.41-4.08-4.23-4.08zm21.71 0c-0.81 0-1.67 0.13-2.57 0.41-0.89 0.27-1.64 0.62-2.25 1.07l0.51 1.22c1.4-0.9 2.81-1.35 4.26-1.35 0.95 0 1.65 0.22 2.09 0.66s0.66 1.14 0.66 2.09c0 0.24-0.01 0.43-0.02 0.56l-0.08 0.87h-0.89c-1.89 0-3.38 0.13-4.49 0.38-1.1 0.24-1.9 0.64-2.39 1.2-0.5 0.55-0.74 1.28-0.74 2.19 0 1.04 0.39 1.89 1.17 2.55 0.78 0.67 1.79 1 3.03 1 0.85 0 1.62-0.2 2.3-0.59s1.22-0.96 1.63-1.71l-0.18 2.12h1.53l0.64-7.95c0.01-0.16 0.02-0.37 0.02-0.64 0-2.72-1.41-4.08-4.23-4.08zm19.16 0c-1.45 0-2.6 0.32-3.47 0.97-0.85 0.64-1.28 1.53-1.28 2.65 0 0.73 0.19 1.32 0.56 1.78 0.38 0.44 0.83 0.78 1.36 1.02 0.52 0.22 1.22 0.46 2.09 0.72 0.69 0.2 1.25 0.39 1.65 0.56 0.41 0.15 0.75 0.37 1.02 0.66 0.28 0.27 0.41 0.63 0.41 1.07 0 1.38-1.1 2.07-3.29 2.07-0.8 0-1.52-0.12-2.17-0.36-0.62-0.24-1.28-0.62-1.96-1.15l-0.69 1.2c0.6 0.53 1.31 0.94 2.14 1.22 0.85 0.29 1.74 0.44 2.66 0.44 1.48 0 2.66-0.32 3.54-0.95 0.9-0.62 1.35-1.47 1.35-2.54 0-0.74-0.19-1.33-0.56-1.79s-0.83-0.8-1.38-1.02c-0.52-0.24-1.21-0.48-2.06-0.71-0.73-0.22-1.29-0.41-1.68-0.56-0.38-0.17-0.7-0.39-0.97-0.67-0.27-0.27-0.41-0.63-0.41-1.07 0-0.71 0.27-1.26 0.82-1.63 0.54-0.37 1.32-0.56 2.34-0.56 1.28 0 2.48 0.49 3.62 1.48l0.66-1.2c-0.49-0.51-1.12-0.91-1.88-1.2-0.75-0.29-1.56-0.43-2.42-0.43zm22.58 0l-0.64 0.05c-1.09 0.08-1.98 0.31-2.67 0.69-0.7 0.36-1.26 0.9-1.69 1.63l0.16-2.07h-1.54l-0.96 12.37h1.55l0.59-7.24c0.1-1.21 0.48-2.14 1.15-2.8 0.67-0.67 1.66-1.06 2.95-1.18l1.1-0.1v-1.35zm6.96 0c-0.82 0-1.68 0.13-2.58 0.41-0.88 0.27-1.63 0.62-2.24 1.07l0.51 1.22c1.39-0.9 2.81-1.35 4.26-1.35 0.95 0 1.65 0.22 2.09 0.66s0.66 1.14 0.66 2.09c0 0.24-0.01 0.43-0.03 0.56l-0.07 0.87h-0.89c-1.89 0-3.39 0.13-4.49 0.38-1.11 0.24-1.9 0.64-2.4 1.2-0.49 0.55-0.74 1.28-0.74 2.19 0 1.04 0.39 1.89 1.18 2.55 0.78 0.67 1.79 1 3.03 1 0.85 0 1.61-0.2 2.29-0.59s1.23-0.96 1.64-1.71l-0.18 2.12h1.53l0.64-7.95c0.01-0.16 0.02-0.37 0.02-0.64 0-2.72-1.41-4.08-4.23-4.08zm21.68 0c-1.22 0-2.29 0.29-3.21 0.87-0.92 0.57-1.62 1.38-2.12 2.42-0.49 1.03-0.73 2.23-0.73 3.59 0 1.82 0.51 3.27 1.53 4.36 1.02 1.07 2.41 1.61 4.18 1.61 0.9 0 1.78-0.15 2.65-0.44 0.86-0.3 1.55-0.71 2.06-1.22l-0.51-1.2c-1.15 0.99-2.54 1.48-4.15 1.48-1.35 0-2.37-0.4-3.09-1.2-0.71-0.8-1.07-1.91-1.07-3.34v-0.25h9.38c0.05-0.44 0.08-0.86 0.08-1.25 0-1.79-0.45-3.14-1.35-4.05-0.88-0.92-2.1-1.38-3.65-1.38zm13.17 0c-1.16 0-2.18 0.27-3.06 0.81-0.89 0.55-1.57 1.32-2.04 2.32-0.48 0.99-0.71 2.14-0.71 3.45 0 1.73 0.48 3.11 1.45 4.15 0.98 1.04 2.29 1.56 3.92 1.56 0.92 0 1.75-0.21 2.5-0.62 0.77-0.4 1.35-0.98 1.74-1.73l-0.18 2.09c-0.21 2.69-1.56 4.03-4.06 4.03-0.88 0-1.67-0.12-2.37-0.36-0.68-0.22-1.44-0.62-2.29-1.2l-0.69 1.23c1.51 1.14 3.29 1.71 5.33 1.71 3.47 0 5.33-1.83 5.61-5.48l0.91-11.66h-1.55l-0.18 2.22c-0.35-0.8-0.92-1.42-1.68-1.86-0.75-0.44-1.63-0.66-2.65-0.66zm-440.24 0.3l4.36 5.97-5.61 6.4h1.94l4.54-5.23 3.7 5.23h1.91l-4.59-6.35 5.28-6.02h-1.94l-4.23 4.82-3.42-4.82h-1.94zm110.52 0l-0.97 12.37h1.56l0.97-12.37h-1.56zm135.3 0l4.31 12.34-2.34 4.62h1.58l8.61-16.96h-1.63l-5.3 10.79-3.62-10.79h-1.61zm202.91 0l4.31 12.34-2.34 4.62h1.58l8.61-16.96h-1.63l-5.3 10.79-3.62-10.79h-1.61zm-417.69 0.97c1.12 0 2 0.37 2.63 1.1 0.63 0.71 0.92 1.77 0.87 3.16h-7.93c0.18-1.36 0.65-2.4 1.4-3.14 0.76-0.74 1.78-1.12 3.03-1.12zm24.75 0c1.12 0 2 0.37 2.63 1.1 0.62 0.71 0.91 1.77 0.86 3.16h-7.92c0.18-1.36 0.65-2.4 1.4-3.14 0.76-0.74 1.77-1.12 3.03-1.12zm39.79 0c1.12 0 1.99 0.37 2.62 1.1 0.63 0.71 0.92 1.77 0.87 3.16h-7.93c0.19-1.36 0.66-2.4 1.4-3.14 0.77-0.74 1.78-1.12 3.04-1.12zm54.52 0c1.12 0 2 0.37 2.62 1.1 0.63 0.71 0.92 1.77 0.87 3.16h-7.93c0.19-1.36 0.66-2.4 1.41-3.14 0.76-0.74 1.77-1.12 3.03-1.12zm277.05 0c1.12 0 2 0.37 2.63 1.1 0.62 0.71 0.91 1.77 0.86 3.16h-7.93c0.19-1.36 0.66-2.4 1.41-3.14 0.76-0.74 1.77-1.12 3.03-1.12zm-223.26 0.08c1.25 0 2.21 0.4 2.91 1.2s1.05 1.92 1.05 3.36c0 1.72-0.38 3.08-1.13 4.08-0.74 0.99-1.77 1.48-3.08 1.48-1.29 0-2.28-0.38-2.96-1.15-0.68-0.78-1.02-1.9-1.02-3.36 0-1.75 0.38-3.12 1.13-4.11 0.74-1 1.78-1.5 3.1-1.5zm19.57 0c1.24 0 2.21 0.4 2.91 1.2s1.04 1.92 1.04 3.36c0 1.72-0.37 3.08-1.12 4.08-0.74 0.99-1.77 1.48-3.08 1.48-1.29 0-2.28-0.38-2.96-1.15-0.68-0.78-1.02-1.9-1.02-3.36 0-1.75 0.38-3.12 1.12-4.11 0.75-1 1.79-1.5 3.11-1.5zm13.95 0c1.25 0 2.23 0.38 2.93 1.15 0.71 0.74 1.07 1.81 1.07 3.18 0 1.64-0.38 2.92-1.15 3.85-0.75 0.92-1.78 1.38-3.11 1.38-1.29 0-2.29-0.37-2.98-1.1-0.68-0.73-1.02-1.79-1.02-3.18 0-1.65 0.37-2.94 1.12-3.88 0.75-0.93 1.79-1.4 3.14-1.4zm61.71 0c1.28 0 2.25 0.39 2.93 1.17 0.7 0.78 1.05 1.91 1.05 3.39 0 1.72-0.38 3.08-1.15 4.08-0.74 0.99-1.77 1.48-3.08 1.48-1.26 0-2.24-0.4-2.93-1.2-0.68-0.8-1.02-1.94-1.02-3.41 0-1.72 0.37-3.06 1.12-4.03 0.75-0.99 1.77-1.48 3.08-1.48zm21.02 0c1.27 0 2.25 0.39 2.93 1.17 0.7 0.78 1.04 1.91 1.04 3.39 0 1.72-0.38 3.08-1.14 4.08-0.75 0.99-1.78 1.48-3.09 1.48-1.26 0-2.23-0.4-2.93-1.2-0.68-0.8-1.02-1.94-1.02-3.41 0-1.72 0.37-3.06 1.12-4.03 0.75-0.99 1.78-1.48 3.09-1.48zm120.17 0c1.26 0 2.24 0.38 2.94 1.15 0.71 0.74 1.07 1.81 1.07 3.18 0 1.64-0.39 2.92-1.15 3.85-0.75 0.92-1.79 1.38-3.11 1.38-1.29 0-2.29-0.37-2.98-1.1-0.68-0.73-1.02-1.79-1.02-3.18 0-1.65 0.37-2.94 1.12-3.88 0.75-0.93 1.79-1.4 3.13-1.4zm-166.83 5.33h0.74l-0.08 0.92c-0.08 1.15-0.49 2.1-1.22 2.83-0.73 0.71-1.63 1.07-2.68 1.07-0.87 0-1.55-0.21-2.06-0.61-0.51-0.43-0.77-0.99-0.77-1.69 0-0.63 0.16-1.12 0.48-1.48 0.33-0.35 0.92-0.62 1.79-0.79s2.13-0.25 3.8-0.25zm63.29 0h0.73l-0.07 0.92c-0.09 1.15-0.49 2.1-1.22 2.83-0.74 0.71-1.63 1.07-2.68 1.07-0.87 0-1.56-0.21-2.07-0.61-0.51-0.43-0.76-0.99-0.76-1.69 0-0.63 0.16-1.12 0.48-1.48 0.32-0.35 0.92-0.62 1.79-0.79 0.86-0.17 2.13-0.25 3.8-0.25zm21.7 0h0.74l-0.07 0.92c-0.09 1.15-0.5 2.1-1.23 2.83-0.73 0.71-1.62 1.07-2.67 1.07-0.87 0-1.56-0.21-2.07-0.61-0.51-0.43-0.76-0.99-0.76-1.69 0-0.63 0.16-1.12 0.48-1.48 0.33-0.35 0.92-0.62 1.79-0.79 0.86-0.17 2.13-0.25 3.79-0.25zm48.7 0h0.74l-0.07 0.92c-0.09 1.15-0.5 2.1-1.23 2.83-0.73 0.71-1.62 1.07-2.67 1.07-0.87 0-1.56-0.21-2.07-0.61-0.51-0.43-0.76-0.99-0.76-1.69 0-0.63 0.16-1.12 0.48-1.48 0.32-0.35 0.92-0.62 1.79-0.79 0.86-0.17 2.13-0.25 3.79-0.25z"
     id="outline" /><g
     style="opacity:0"
     id="logo-fade"><g
       transform="matrix(1.0623,0,0,1.0623,-31.424,-23.906)"
       id="logo-group"><path
         stroke-miterlimit="2"
         d="m 291.11,430.63 -0.504,6.408 h 8.496 l -0.12,1.296 h -8.472 l -0.528,6.672 h 8.976 l -0.12,1.272 h -10.44 l 1.32,-16.92 h 10.44 l -0.072,1.272 z"
         style="font-variant-ligatures:none;fill:#00d045;stroke-width:0;stroke-miterlimit:2"
         id="path280914" /><path
         stroke-miterlimit="2"
         d="m 307.6,440.31 4.32,5.976 h -1.8 l -3.48,-4.92 -4.272,4.92 h -1.824 l 5.28,-6.024 -4.104,-5.616 h 1.824 l 3.216,4.536 3.984,-4.536 h 1.824 z"
         style="font-variant-ligatures:none;fill:#00d045;stroke-width:0;stroke-miterlimit:2"
         id="path280916" /><path
         stroke-miterlimit="2"
         d="m 318.98,446.45 q -1.56,0 -2.76,-0.696 -1.176,-0.696 -1.824,-1.968 -0.62401,-1.272 -0.62401,-2.952 0,-1.944 0.69601,-3.408 0.69599,-1.464 1.992,-2.256 1.32,-0.816 3.072,-0.816 1.248,0 2.328,0.408 1.08,0.408 1.848,1.128 l -0.648,1.152 q -0.912,-0.744 -1.752,-1.08 -0.816,-0.336 -1.8,-0.336 -1.992,0 -3.096,1.392 -1.104,1.392 -1.104,3.864 0,1.992 0.98401,3.144 1.008,1.128 2.832,1.128 0.93599,0 1.704,-0.312 0.79201,-0.336 1.704,-1.08 l 0.48,1.128 q -0.744,0.72 -1.8,1.152 -1.056,0.408 -2.232,0.408 z"
         style="font-variant-ligatures:none;fill:#00d045;stroke-width:0;stroke-miterlimit:2"
         id="path280918" /><path
         stroke-miterlimit="2"
         d="m 326.67,440.64 v 0.24 q 0,2.016 1.008,3.144 1.008,1.128 2.904,1.128 2.28,0 3.912,-1.392 l 0.48,1.128 q -0.72,0.72 -1.944,1.152 -1.224,0.408 -2.496,0.408 -2.496,0 -3.936,-1.512 -1.44,-1.536 -1.44,-4.104 0,-1.92 0.696,-3.384 0.696,-1.464 1.992,-2.28 1.296,-0.816 3.024,-0.816 2.184,0 3.432,1.296 1.272,1.296 1.272,3.816 0,0.552 -0.072,1.176 z m 4.272,-5.088 q -1.776,0 -2.856,1.056 -1.056,1.032 -1.32,2.952 h 7.464 q 0.072,-1.968 -0.816,-2.976 -0.888,-1.032 -2.472,-1.032 z"
         style="font-variant-ligatures:none;fill:#00d045;stroke-width:0;stroke-miterlimit:2"
         id="path280920" /><path
         stroke-miterlimit="2"
         d="m 339.4,429.36 h 1.464 l -1.344,16.92 h -1.464 z"
         style="font-variant-ligatures:none;fill:#00d045;stroke-width:0;stroke-miterlimit:2"
         id="path280922" /><path
         stroke-miterlimit="2"
         d="m 344.75,429.36 h 1.464 l -1.344,16.92 h -1.464 z"
         style="font-variant-ligatures:none;fill:#00d045;stroke-width:0;stroke-miterlimit:2"
         id="path280924" /><path
         stroke-miterlimit="2"
         d="m 349.97,440.64 v 0.24 q 0,2.016 1.008,3.144 1.008,1.128 2.904,1.128 2.28,0 3.912,-1.392 l 0.48,1.128 q -0.72001,0.72 -1.944,1.152 -1.224,0.408 -2.496,0.408 -2.496,0 -3.936,-1.512 -1.44,-1.536 -1.44,-4.104 0,-1.92 0.696,-3.384 0.696,-1.464 1.992,-2.28 1.296,-0.816 3.024,-0.816 2.184,0 3.432,1.296 1.272,1.296 1.272,3.816 0,0.552 -0.072,1.176 z m 4.272,-5.088 q -1.776,0 -2.856,1.056 -1.056,1.032 -1.32,2.952 h 7.464 q 0.072,-1.968 -0.816,-2.976 -0.88801,-1.032 -2.472,-1.032 z"
         style="font-variant-ligatures:none;fill:#00d045;stroke-width:0;stroke-miterlimit:2"
         id="path280926" /><path
         stroke-miterlimit="2"
         d="m 367.59,434.35 q 1.944,0 2.976,0.984 1.032,0.984 1.032,2.928 0,0.432 -0.024,0.648 l -0.576,7.368 h -1.464 l 0.576,-7.272 q 0.024,-0.192 0.024,-0.552 0,-2.808 -2.784,-2.808 -1.776,0 -2.832,1.032 -1.032,1.032 -1.176,2.856 l -0.528,6.744 h -1.464 l 0.912,-11.64 h 1.44 l -0.144,1.896 q 0.6,-1.032 1.632,-1.608 1.056,-0.576 2.4,-0.576 z"
         style="font-variant-ligatures:none;fill:#00d045;stroke-width:0;stroke-miterlimit:2"
         id="path280928" /><path
         stroke-miterlimit="2"
         d="m 379.73,446.45 q -1.56,0 -2.76,-0.696 -1.176,-0.696 -1.824,-1.968 -0.624,-1.272 -0.624,-2.952 0,-1.944 0.696,-3.408 0.696,-1.464 1.992,-2.256 1.32,-0.816 3.072,-0.816 1.248,0 2.328,0.408 1.08,0.408 1.848,1.128 l -0.648,1.152 q -0.912,-0.744 -1.752,-1.08 -0.816,-0.336 -1.8,-0.336 -1.992,0 -3.096,1.392 -1.104,1.392 -1.104,3.864 0,1.992 0.984,3.144 1.008,1.128 2.832,1.128 0.936,0 1.704,-0.312 0.792,-0.336 1.704,-1.08 l 0.48,1.128 q -0.744,0.72 -1.8,1.152 -1.056,0.408 -2.232,0.408 z"
         style="font-variant-ligatures:none;fill:#00d045;stroke-width:0;stroke-miterlimit:2"
         id="path280930" /><path
         stroke-miterlimit="2"
         d="m 387.42,440.64 v 0.24 q 0,2.016 1.008,3.144 1.008,1.128 2.904,1.128 2.28,0 3.912,-1.392 l 0.48,1.128 q -0.72,0.72 -1.944,1.152 -1.224,0.408 -2.496,0.408 -2.496,0 -3.936,-1.512 -1.44,-1.536 -1.44,-4.104 0,-1.92 0.696,-3.384 0.696,-1.464 1.992,-2.28 1.296,-0.816 3.024,-0.816 2.184,0 3.432,1.296 1.272,1.296 1.272,3.816 0,0.552 -0.072,1.176 z m 4.272,-5.088 q -1.776,0 -2.856,1.056 -1.056,1.032 -1.32,2.952 h 7.464 q 0.072,-1.968 -0.816,-2.976 -0.888,-1.032 -2.472,-1.032 z"
         style="font-variant-ligatures:none;fill:#00d045;stroke-width:0;stroke-miterlimit:2"
         id="path280932" /><path
         stroke-miterlimit="2"
         d="m 405.77,434.64 h 1.464 l -0.912,11.64 h -1.464 z m 2.088,-4.92 -0.144,1.848 h -1.92 l 0.144,-1.848 z"
         style="font-variant-ligatures:none;fill:#00d045;stroke-width:0;stroke-miterlimit:2"
         id="path280934" /><path
         stroke-miterlimit="2"
         d="m 416.44,434.35 q 1.944,0 2.976,0.984 1.032,0.984 1.032,2.928 0,0.432 -0.024,0.648 l -0.576,7.368 h -1.464 l 0.576,-7.272 q 0.024,-0.192 0.024,-0.552 0,-2.808 -2.784,-2.808 -1.776,0 -2.832,1.032 -1.032,1.032 -1.176,2.856 l -0.528,6.744 H 410.2 l 0.912,-11.64 h 1.44 l -0.144,1.896 q 0.6,-1.032 1.632,-1.608 1.056,-0.576 2.4,-0.576 z"
         style="font-variant-ligatures:none;fill:#00d045;stroke-width:0;stroke-miterlimit:2"
         id="path280936" /><path
         stroke-miterlimit="2"
         d="m 432.05,442.18 q -0.024,0.168 -0.024,0.48 0,1.248 0.624,1.896 0.648,0.648 1.872,0.648 0.576,0 1.032,-0.096 l -0.168,1.224 q -0.48,0.096 -1.056,0.096 -1.8,0 -2.784,-0.936 -0.984,-0.936 -0.984,-2.664 0,-0.336 0.024,-0.528 l 0.504,-6.48 h -2.304 l 0.096,-1.176 h 2.304 l 0.288,-3.6 h 1.464 l -0.288,3.6 h 3.408 l -0.072,1.176 h -3.432 z"
         style="font-variant-ligatures:none;fill:#00d045;stroke-width:0;stroke-miterlimit:2"
         id="path280938" /><path
         stroke-miterlimit="2"
         d="m 438.75,440.64 v 0.24 q 0,2.016 1.008,3.144 1.008,1.128 2.904,1.128 2.28,0 3.912,-1.392 l 0.48,1.128 q -0.72,0.72 -1.944,1.152 -1.224,0.408 -2.496,0.408 -2.496,0 -3.936,-1.512 -1.44,-1.536 -1.44,-4.104 0,-1.92 0.696,-3.384 0.696,-1.464 1.992,-2.28 1.296,-0.816 3.024,-0.816 2.184,0 3.432,1.296 1.272,1.296 1.272,3.816 0,0.552 -0.072,1.176 z m 4.272,-5.088 q -1.776,0 -2.856,1.056 -1.056,1.032 -1.32,2.952 h 7.464 q 0.072,-1.968 -0.816,-2.976 -0.88801,-1.032 -2.472,-1.032 z"
         style="font-variant-ligatures:none;fill:#00d045;stroke-width:0;stroke-miterlimit:2"
         id="path280940" /><path
         stroke-miterlimit="2"
         d="m 455.06,446.45 q -1.56,0 -2.76,-0.696 -1.176,-0.696 -1.824,-1.968 -0.624,-1.272 -0.624,-2.952 0,-1.944 0.696,-3.408 0.696,-1.464 1.992,-2.256 1.32,-0.816 3.072,-0.816 1.248,0 2.328,0.408 1.08,0.408 1.848,1.128 l -0.648,1.152 q -0.912,-0.744 -1.752,-1.08 -0.816,-0.336 -1.8,-0.336 -1.992,0 -3.096,1.392 -1.104,1.392 -1.104,3.864 0,1.992 0.984,3.144 1.008,1.128 2.832,1.128 0.936,0 1.704,-0.312 0.792,-0.336 1.704,-1.08 l 0.48,1.128 q -0.744,0.72 -1.8,1.152 -1.056,0.408 -2.232,0.408 z"
         style="font-variant-ligatures:none;fill:#00d045;stroke-width:0;stroke-miterlimit:2"
         id="path280942" /><path
         stroke-miterlimit="2"
         d="m 467.77,434.35 q 1.944,0 2.976,0.984 1.032,0.984 1.032,2.928 0,0.432 -0.024,0.648 l -0.576,7.368 h -1.464 l 0.576,-7.272 q 0.024,-0.192 0.024,-0.552 0,-2.808 -2.784,-2.808 -1.776,0 -2.832,1.032 -1.032,1.032 -1.176,2.856 l -0.528,6.744 h -1.464 l 1.344,-16.92 h 1.464 l -0.57599,7.128 q 0.59999,-1.032 1.632,-1.584 1.056,-0.552 2.376,-0.552 z"
         style="font-variant-ligatures:none;fill:#00d045;stroke-width:0;stroke-miterlimit:2"
         id="path280944" /><path
         stroke-miterlimit="2"
         d="m 481.22,434.35 q 1.944,0 2.976,0.984 1.032,0.984 1.032,2.928 0,0.432 -0.024,0.648 l -0.576,7.368 h -1.464 l 0.576,-7.272 q 0.024,-0.192 0.024,-0.552 0,-2.808 -2.784,-2.808 -1.776,0 -2.832,1.032 -1.032,1.032 -1.176,2.856 l -0.528,6.744 h -1.464 l 0.912,-11.64 h 1.44 l -0.144,1.896 q 0.6,-1.032 1.632,-1.608 1.056,-0.576 2.4,-0.576 z"
         style="font-variant-ligatures:none;fill:#00d045;stroke-width:0;stroke-miterlimit:2"
         id="path280946" /><path
         stroke-miterlimit="2"
         d="m 493.35,446.45 q -1.56,0 -2.76,-0.696 -1.176,-0.696 -1.824,-1.968 -0.624,-1.272 -0.624,-2.952 0,-1.944 0.67201,-3.408 0.69599,-1.464 1.944,-2.256 1.272,-0.816 2.904,-0.816 1.584,0 2.76,0.696 1.2,0.696 1.824,1.968 0.64799,1.272 0.64799,2.976 0,1.92 -0.696,3.384 -0.67199,1.464 -1.944,2.28 -1.248,0.792 -2.904,0.792 z m 0.072,-1.296 q 1.848,0 2.904,-1.392 1.056,-1.416 1.056,-3.84 0,-2.04 -0.984,-3.168 -0.98401,-1.128 -2.736,-1.128 -1.872,0 -2.928,1.416 -1.056,1.392 -1.056,3.864 0,2.064 0.96,3.168 0.96,1.08 2.784,1.08 z"
         style="font-variant-ligatures:none;fill:#00d045;stroke-width:0;stroke-miterlimit:2"
         id="path280948" /><path
         stroke-miterlimit="2"
         d="m 502.85,429.36 h 1.464 l -1.344,16.92 h -1.464 z"
         style="font-variant-ligatures:none;fill:#00d045;stroke-width:0;stroke-miterlimit:2"
         id="path280950" /><path
         stroke-miterlimit="2"
         d="m 511.77,446.45 q -1.56,0 -2.76,-0.696 -1.176,-0.696 -1.824,-1.968 -0.624,-1.272 -0.624,-2.952 0,-1.944 0.672,-3.408 0.696,-1.464 1.944,-2.256 1.272,-0.816 2.904,-0.816 1.584,0 2.76,0.696 1.2,0.696 1.824,1.968 0.648,1.272 0.648,2.976 0,1.92 -0.696,3.384 -0.672,1.464 -1.944,2.28 -1.248,0.792 -2.904,0.792 z m 0.072,-1.296 q 1.848,0 2.904,-1.392 1.056,-1.416 1.056,-3.84 0,-2.04 -0.984,-3.168 -0.984,-1.128 -2.736,-1.128 -1.872,0 -2.928,1.416 -1.056,1.392 -1.056,3.864 0,2.064 0.96,3.168 0.96,1.08 2.784,1.08 z"
         style="font-variant-ligatures:none;fill:#00d045;stroke-width:0;stroke-miterlimit:2"
         id="path280952" /><path
         stroke-miterlimit="2"
         d="m 530.85,434.64 -0.864,10.968 q -0.384,5.16 -5.28,5.16 -2.88,0 -5.016,-1.608 l 0.648,-1.152 q 1.2,0.816 2.16,1.128 0.984,0.336 2.232,0.336 3.528,0 3.816,-3.792 l 0.168,-1.968 q -0.55199,1.056 -1.632,1.632 -1.056,0.576 -2.352,0.576 -2.304,0 -3.696,-1.464 -1.368,-1.464 -1.368,-3.912 0,-1.848 0.67199,-3.24 0.672,-1.416 1.92,-2.184 1.248,-0.768 2.88,-0.768 1.44,0 2.496,0.624 1.08,0.624 1.584,1.752 l 0.168,-2.088 z m -5.88,9.984 q 1.872,0 2.928,-1.296 1.08,-1.32 1.08,-3.624 0,-1.944 -1.008,-3 -0.984,-1.08 -2.76,-1.08 -1.896,0 -2.952,1.32 -1.056,1.32 -1.056,3.648 0,1.968 0.96,3 0.984,1.032 2.808,1.032 z"
         style="font-variant-ligatures:none;fill:#00d045;stroke-width:0;stroke-miterlimit:2"
         id="path280954" /><path
         stroke-miterlimit="2"
         d="m 544.58,434.64 -8.112,15.96 h -1.488 l 2.208,-4.344 -4.056,-11.616 h 1.512 l 3.408,10.152 4.992,-10.152 z"
         style="font-variant-ligatures:none;fill:#00d045;stroke-width:0;stroke-miterlimit:2"
         id="path280956" /><path
         stroke-miterlimit="2"
         d="m 557.49,434.35 q 3.984,0 3.984,3.84 0,0.384 -0.024,0.6 l -0.6,7.488 h -1.44 l 0.168,-1.992 q -0.576,1.056 -1.536,1.608 -0.96,0.552 -2.16,0.552 -1.752,0 -2.856,-0.936 -1.104,-0.936 -1.104,-2.4 0,-1.296 0.696,-2.064 0.696,-0.792 2.256,-1.128 1.56,-0.36 4.224,-0.36 h 0.84 l 0.072,-0.816 q 0.024,-0.192 0.024,-0.528 0,-1.344 -0.624,-1.968 -0.624,-0.624 -1.968,-0.624 -2.04,0 -4.008,1.272 l -0.48,-1.152 q 0.864,-0.624 2.112,-1.008 1.272,-0.384 2.424,-0.384 z m -1.368,10.824 q 1.488,0 2.52,-1.008 1.032,-1.032 1.152,-2.664 l 0.072,-0.864 h -0.696 q -2.352,0 -3.576,0.24 -1.224,0.24 -1.68,0.744 -0.456,0.504 -0.456,1.392 0,0.984 0.72,1.584 0.72,0.576 1.944,0.576 z"
         style="font-variant-ligatures:none;fill:#00d045;stroke-width:0;stroke-miterlimit:2"
         id="path280958" /><path
         stroke-miterlimit="2"
         d="m 570.89,434.35 q 1.944,0 2.976,0.984 1.032,0.984 1.032,2.928 0,0.432 -0.024,0.648 l -0.576,7.368 h -1.464 l 0.576,-7.272 q 0.024,-0.192 0.024,-0.552 0,-2.808 -2.784,-2.808 -1.776,0 -2.832,1.032 -1.032,1.032 -1.176,2.856 l -0.52801,6.744 h -1.464 l 0.912,-11.64 h 1.44 l -0.144,1.896 q 0.6,-1.032 1.632,-1.608 1.056,-0.576 2.4,-0.576 z"
         style="font-variant-ligatures:none;fill:#00d045;stroke-width:0;stroke-miterlimit:2"
         id="path280960" /><path
         stroke-miterlimit="2"
         d="m 589.34,429.36 -1.32,16.92 h -1.464 l 0.168,-1.992 q -0.6,1.008 -1.656,1.584 -1.032,0.576 -2.28,0.576 -1.464,0 -2.592,-0.696 -1.128,-0.696 -1.752,-1.968 -0.624,-1.272 -0.624,-2.952 0,-1.92 0.672,-3.384 0.696,-1.488 1.92,-2.28 1.248,-0.816 2.856,-0.816 1.416,0 2.472,0.624 1.056,0.6 1.56,1.728 l 0.576,-7.344 z m -6.264,15.792 q 1.848,0 2.904,-1.392 1.08,-1.416 1.08,-3.84 0,-2.088 -0.984,-3.192 -0.96,-1.104 -2.76,-1.104 -1.848,0 -2.904,1.392 -1.056,1.368 -1.056,3.792 0,2.088 0.96,3.216 0.984,1.128 2.76,1.128 z"
         style="font-variant-ligatures:none;fill:#00d045;stroke-width:0;stroke-miterlimit:2"
         id="path280962" /><path
         stroke-miterlimit="2"
         d="m 609.12,429.36 -1.32,16.92 h -1.464 l 0.168,-1.992 q -0.6,1.008 -1.656,1.584 -1.032,0.576 -2.28,0.576 -1.464,0 -2.592,-0.696 -1.128,-0.696 -1.752,-1.968 -0.624,-1.272 -0.624,-2.952 0,-1.92 0.672,-3.384 0.696,-1.488 1.92,-2.28 1.248,-0.816 2.856,-0.816 1.416,0 2.472,0.624 1.056,0.6 1.56,1.728 l 0.576,-7.344 z m -6.264,15.792 q 1.848,0 2.904,-1.392 1.08,-1.416 1.08,-3.84 0,-2.088 -0.984,-3.192 -0.96,-1.104 -2.76,-1.104 -1.848,0 -2.904,1.392 -1.056,1.368 -1.056,3.792 0,2.088 0.96,3.216 0.984,1.128 2.76,1.128 z"
         style="font-variant-ligatures:none;fill:#00d045;stroke-width:0;stroke-miterlimit:2"
         id="path280964" /><path
         stroke-miterlimit="2"
         d="m 617.07,434.35 q 3.984,0 3.984,3.84 0,0.384 -0.024,0.6 l -0.59999,7.488 h -1.44 l 0.16801,-1.992 q -0.576,1.056 -1.536,1.608 -0.96,0.552 -2.16,0.552 -1.752,0 -2.856,-0.936 -1.104,-0.936 -1.104,-2.4 0,-1.296 0.696,-2.064 0.696,-0.792 2.256,-1.128 1.56,-0.36 4.224,-0.36 h 0.84 l 0.072,-0.816 q 0.024,-0.192 0.024,-0.528 0,-1.344 -0.624,-1.968 -0.624,-0.624 -1.968,-0.624 -2.04,0 -4.008,1.272 l -0.48,-1.152 q 0.864,-0.624 2.112,-1.008 1.272,-0.384 2.424,-0.384 z m -1.368,10.824 q 1.488,0 2.52,-1.008 1.032,-1.032 1.152,-2.664 l 0.072,-0.864 h -0.69601 q -2.352,0 -3.576,0.24 -1.224,0.24 -1.68,0.744 -0.45601,0.504 -0.45601,1.392 0,0.984 0.72001,1.584 0.72,0.576 1.944,0.576 z"
         style="font-variant-ligatures:none;fill:#00d045;stroke-width:0;stroke-miterlimit:2"
         id="path280966" /><path
         stroke-miterlimit="2"
         d="m 626.58,442.18 q -0.024,0.168 -0.024,0.48 0,1.248 0.624,1.896 0.648,0.648 1.872,0.648 0.576,0 1.032,-0.096 l -0.168,1.224 q -0.48,0.096 -1.056,0.096 -1.8,0 -2.784,-0.936 -0.984,-0.936 -0.984,-2.664 0,-0.336 0.024,-0.528 l 0.504,-6.48 h -2.304 l 0.096,-1.176 h 2.304 l 0.288,-3.6 h 1.464 l -0.288,3.6 h 3.408 l -0.072,1.176 h -3.432 z"
         style="font-variant-ligatures:none;fill:#00d045;stroke-width:0;stroke-miterlimit:2"
         id="path280968" /><path
         stroke-miterlimit="2"
         d="m 637.51,434.35 q 3.984,0 3.984,3.84 0,0.384 -0.024,0.6 l -0.59999,7.488 h -1.44 l 0.168,-1.992 q -0.576,1.056 -1.536,1.608 -0.96,0.552 -2.16,0.552 -1.752,0 -2.856,-0.936 -1.104,-0.936 -1.104,-2.4 0,-1.296 0.696,-2.064 0.696,-0.792 2.256,-1.128 1.56,-0.36 4.224,-0.36 h 0.84 l 0.072,-0.816 q 0.024,-0.192 0.024,-0.528 0,-1.344 -0.624,-1.968 -0.624,-0.624 -1.968,-0.624 -2.04,0 -4.008,1.272 l -0.48,-1.152 q 0.864,-0.624 2.112,-1.008 1.272,-0.384 2.424,-0.384 z m -1.368,10.824 q 1.488,0 2.52,-1.008 1.032,-1.032 1.152,-2.664 l 0.072,-0.864 h -0.69601 q -2.352,0 -3.576,0.24 -1.224,0.24 -1.68,0.744 -0.45601,0.504 -0.45601,1.392 0,0.984 0.72001,1.584 0.72,0.576 1.944,0.576 z"
         style="font-variant-ligatures:none;fill:#00d045;stroke-width:0;stroke-miterlimit:2"
         id="path280970" /><path
         stroke-miterlimit="2"
         d="m 654.63,446.45 q -1.296,0 -2.496,-0.408 -1.176,-0.408 -2.016,-1.152 l 0.648,-1.128 q 0.95999,0.744 1.848,1.08 0.912,0.336 2.04,0.336 3.096,0 3.096,-1.944 0,-0.624 -0.384,-1.008 -0.384,-0.408 -0.96,-0.624 -0.576,-0.24 -1.56,-0.528 -1.224,-0.36 -1.968,-0.672 -0.744,-0.336 -1.272,-0.96 -0.528,-0.648 -0.528,-1.68 0,-1.584 1.2,-2.496 1.224,-0.912 3.264,-0.912 1.224,0 2.28,0.408 1.08,0.408 1.776,1.128 l -0.624,1.128 q -1.608,-1.392 -3.408,-1.392 -1.44,0 -2.208,0.528 -0.768,0.528 -0.768,1.536 0,0.624 0.384,1.008 0.384,0.384 0.912,0.624 0.552,0.216 1.584,0.528 1.2,0.336 1.944,0.672 0.768,0.312 1.296,0.96 0.528,0.648 0.528,1.68 0,1.512 -1.272,2.4 -1.248,0.888 -3.336,0.888 z"
         style="font-variant-ligatures:none;fill:#00d045;stroke-width:0;stroke-miterlimit:2"
         id="path280972" /><path
         stroke-miterlimit="2"
         d="m 664.41,442.18 q -0.024,0.168 -0.024,0.48 0,1.248 0.624,1.896 0.648,0.648 1.872,0.648 0.576,0 1.032,-0.096 l -0.168,1.224 q -0.48,0.096 -1.056,0.096 -1.8,0 -2.784,-0.936 -0.984,-0.936 -0.984,-2.664 0,-0.336 0.024,-0.528 l 0.504,-6.48 h -2.304 l 0.096,-1.176 h 2.304 l 0.28801,-3.6 h 1.464 l -0.288,3.6 h 3.408 l -0.072,1.176 h -3.432 z"
         style="font-variant-ligatures:none;fill:#00d045;stroke-width:0;stroke-miterlimit:2"
         id="path280974" /><path
         stroke-miterlimit="2"
         d="m 676.8,434.35 v 1.272 l -1.032,0.096 q -1.824,0.168 -2.784,1.104 -0.936,0.936 -1.08,2.64 l -0.552,6.816 h -1.464 l 0.912,-11.64 h 1.44 l -0.144,1.944 q 0.6,-1.032 1.584,-1.536 0.984,-0.528 2.52,-0.648 z"
         style="font-variant-ligatures:none;fill:#00d045;stroke-width:0;stroke-miterlimit:2"
         id="path280976" /><path
         stroke-miterlimit="2"
         d="m 683.35,434.35 q 3.984,0 3.984,3.84 0,0.384 -0.024,0.6 l -0.59999,7.488 h -1.44 l 0.168,-1.992 q -0.576,1.056 -1.536,1.608 -0.96,0.552 -2.16,0.552 -1.752,0 -2.856,-0.936 -1.104,-0.936 -1.104,-2.4 0,-1.296 0.696,-2.064 0.696,-0.792 2.256,-1.128 1.56,-0.36 4.224,-0.36 h 0.84 l 0.072,-0.816 q 0.024,-0.192 0.024,-0.528 0,-1.344 -0.624,-1.968 -0.624,-0.624 -1.968,-0.624 -2.04,0 -4.008,1.272 l -0.48,-1.152 q 0.864,-0.624 2.112,-1.008 1.272,-0.384 2.424,-0.384 z m -1.368,10.824 q 1.488,0 2.52,-1.008 1.032,-1.032 1.152,-2.664 l 0.072,-0.864 h -0.69601 q -2.352,0 -3.576,0.24 -1.224,0.24 -1.68,0.744 -0.45601,0.504 -0.45601,1.392 0,0.984 0.72001,1.584 0.72,0.576 1.944,0.576 z"
         style="font-variant-ligatures:none;fill:#00d045;stroke-width:0;stroke-miterlimit:2"
         id="path280978" /><path
         stroke-miterlimit="2"
         d="m 692.86,442.18 q -0.024,0.168 -0.024,0.48 0,1.248 0.624,1.896 0.648,0.648 1.872,0.648 0.576,0 1.032,-0.096 l -0.168,1.224 q -0.48,0.096 -1.056,0.096 -1.8,0 -2.784,-0.936 -0.984,-0.936 -0.984,-2.664 0,-0.336 0.024,-0.528 l 0.504,-6.48 h -2.304 l 0.096,-1.176 h 2.304 l 0.288,-3.6 h 1.464 l -0.288,3.6 h 3.408 l -0.072,1.176 h -3.432 z"
         style="font-variant-ligatures:none;fill:#00d045;stroke-width:0;stroke-miterlimit:2"
         id="path280980" /><path
         stroke-miterlimit="2"
         d="m 699.56,440.64 v 0.24 q 0,2.016 1.008,3.144 1.008,1.128 2.904,1.128 2.28,0 3.912,-1.392 l 0.48,1.128 q -0.72,0.72 -1.944,1.152 -1.224,0.408 -2.496,0.408 -2.496,0 -3.936,-1.512 -1.44,-1.536 -1.44,-4.104 0,-1.92 0.696,-3.384 0.696,-1.464 1.992,-2.28 1.296,-0.816 3.024,-0.816 2.184,0 3.432,1.296 1.272,1.296 1.272,3.816 0,0.552 -0.072,1.176 z m 4.272,-5.088 q -1.776,0 -2.856,1.056 -1.056,1.032 -1.32,2.952 h 7.464 q 0.072,-1.968 -0.816,-2.976 -0.888,-1.032 -2.472,-1.032 z"
         style="font-variant-ligatures:none;fill:#00d045;stroke-width:0;stroke-miterlimit:2"
         id="path280982" /><path
         stroke-miterlimit="2"
         d="m 721.87,434.64 -0.864,10.968 q -0.384,5.16 -5.28,5.16 -2.88,0 -5.016,-1.608 l 0.648,-1.152 q 1.2,0.816 2.16,1.128 0.984,0.336 2.232,0.336 3.528,0 3.816,-3.792 l 0.168,-1.968 q -0.552,1.056 -1.632,1.632 -1.056,0.576 -2.352,0.576 -2.304,0 -3.696,-1.464 -1.368,-1.464 -1.368,-3.912 0,-1.848 0.672,-3.24 0.672,-1.416 1.92,-2.184 1.248,-0.768 2.88,-0.768 1.44,0 2.496,0.624 1.08,0.624 1.584,1.752 l 0.168,-2.088 z m -5.88,9.984 q 1.872,0 2.928,-1.296 1.08,-1.32 1.08,-3.624 0,-1.944 -1.008,-3 -0.984,-1.08 -2.76,-1.08 -1.896,0 -2.952,1.32 -1.056,1.32 -1.056,3.648 0,1.968 0.96,3 0.984,1.032 2.808,1.032 z"
         style="font-variant-ligatures:none;fill:#00d045;stroke-width:0;stroke-miterlimit:2"
         id="path280984" /><path
         stroke-miterlimit="2"
         d="m 735.6,434.64 -8.112,15.96 H 726 l 2.208,-4.344 -4.056,-11.616 h 1.512 l 3.408,10.152 4.992,-10.152 z"
         style="font-variant-ligatures:none;fill:#00d045;stroke-width:0;stroke-miterlimit:2"
         id="path280986" /><path
         stroke-miterlimit="2"
         class="c1"
         d="m 470.75,318.55 -35.716,75.638 h -12.26 l -20.93,-50.75 v 59.283 h -16.596 v -84.175 h 21.045 l 22.607,52.429 26.094,-52.429 h 15.754 z m -14.913,47.98 c 0.24136,-0.48111 6.013,-16.715 16.596,-23.329 v 59.524 h -16.354 l -0.12074,-36.075 z"
         style="font-variant-ligatures:normal;fill:#00d045;stroke-width:0;stroke-miterlimit:2"
         id="path49" /><path
         stroke-miterlimit="2"
         class="c1"
         d="m 562.22,346.21 c 0,19.601 -11.543,29.101 -31.746,29.101 h -15.51 v 27.54 h -18.88 v -84.175 h 34.392 c 20.203,0 31.746,9.0186 31.746,27.537 z m -17.677,0.72166 c 0,-9.2592 -5.4112,-12.747 -15.151,-12.747 h -14.551 v 25.734 h 14.551 c 9.6204,-2e-5 15.151,-3.6075 15.151,-12.987 z"
         style="font-variant-ligatures:normal;fill:#00d045;stroke-width:0;stroke-miterlimit:2"
         id="path52" /><path
         stroke-miterlimit="2"
         d="m 667.67,318.19 h -22.365 l -33.306,51.703 v 13.467 h 38.357 v 18.878 h 17.315 V 383.36 h 10.942 v -14.79 h -10.942 z m -36.673,50.381 19.359,-30.421 v 30.421 z"
         style="font-variant-ligatures:normal;fill:#00d045;stroke-width:0;stroke-miterlimit:2"
         id="path280995" /><path
         stroke-miterlimit="2"
         d="m 720.47,333.1 c 6.2525,0 9.9799,3.2465 9.9799,8.6573 0,3.9679 -3.006,9.8597 -7.9358,15.391 l -28.737,32.224 v 12.866 h 58.797 v -15.511 h -35.23 l 17.675,-19.96 c 10.22,-11.182 15.03,-20.08 15.03,-28.016 0,-12.866 -10.701,-21.523 -26.693,-21.523 -10.701,0 -21.403,4.0882 -31.864,12.264 l 6.9739,14.068 c 7.4549,-6.6132 15.391,-10.341 21.763,-10.341 z"
         style="font-variant-ligatures:normal;fill:#4aa5ef;stroke-width:0;stroke-miterlimit:2"
         id="path280997" /><path
         style="fill:#00d045;stroke-width:0.48934999"
         d="m 319.55,319.6 c -0.007,0 -3.4782,5.9378 -7.7126,13.195 l -7.6994,13.196 h -33.562 v 3.0745 h 15.876 c 8.732,0 15.876,0.007 15.876,0.0155 0,0.009 -1.4355,2.4756 -3.1901,5.4822 l -3.1906,5.4665 h -25.371 v 3.0473 l 11.791,0.007 11.791,0.007 -3.1915,5.469 -3.1915,5.469 -8.6003,0.007 -8.5993,0.01 v 3.0745 l 7.696,0.007 7.6955,0.007 -7.6852,13.168 c -4.2268,7.2428 -7.6916,13.184 -7.6989,13.203 -0.0109,0.0272 9.7928,0.034 48.964,0.034 26.937,0 48.979,-0.007 48.979,-0.0144 0,-0.008 -7.144,-12.257 -15.876,-27.22 -8.7315,-14.963 -15.876,-27.212 -15.876,-27.221 0,-0.008 7.144,-0.0155 15.876,-0.0155 h 15.87 v -3.0736 h -33.564 l -7.6975,-13.196 c -4.2329,-7.257 -7.7024,-13.195 -7.7121,-13.195 z m 0,6.0679 c 0.008,0 2.6789,4.5695 5.9363,10.154 l 5.926,10.155 -5.9309,0.007 c -3.2614,0.004 -8.5974,0.004 -11.858,0 l -5.9294,-0.007 5.9216,-10.154 c 3.2571,-5.5849 5.9255,-10.154 5.9353,-10.154 z m 0.006,23.404 13.662,0.007 3.1917,5.469 3.1915,5.469 -8.9022,0.007 c -7.0995,0.005 -8.9091,0 -8.9345,-0.0272 -0.0177,-0.0188 -0.51748,-0.87281 -1.1103,-1.8978 -0.59284,-1.0252 -1.0897,-1.8637 -1.1038,-1.8637 -0.0141,0 -0.51098,0.83855 -1.1038,1.8637 -0.59284,1.0249 -1.0927,1.879 -1.1103,1.8978 -0.0258,0.0272 -1.8354,0.0327 -8.9345,0.0272 l -8.9022,-0.007 3.1765,-5.4416 c 1.747,-2.9928 3.186,-5.4567 3.198,-5.4758 0.0174,-0.0272 2.7719,-0.0327 13.683,-0.0272 z m -12.92,14.01 c 5.4381,0 8.9169,0.01 8.9115,0.025 -0.005,0.0139 -1.4292,2.4805 -3.1651,5.4817 l -3.1561,5.4562 -8.9443,9.8e-4 c -4.9194,4.9e-4 -8.9443,-0.007 -8.9443,-0.0161 0,-0.009 1.4352,-2.4764 3.1893,-5.4822 l 3.1893,-5.465 z m 12.915,0 h 0.44921 l 5.8144,10.048 c 3.198,5.5262 5.8223,10.069 5.8321,10.094 l 0.0177,0.046 h -24.23 l 0.0177,-0.0462 c 0.01,-0.0256 2.6343,-4.5679 5.8321,-10.094 l 5.8144,-10.048 z m 12.918,0 h 8.9179 l 10.902,18.685 10.902,18.685 -21.82,0.007 c -12.001,0.004 -31.639,0.004 -43.641,0 l -21.822,-0.005 6.8064,-11.666 6.8068,-11.666 h 17.921 l -0.13196,0.22446 c -0.0724,0.12352 -1.2603,2.1745 -2.6394,4.5576 -1.3794,2.3834 -2.5148,4.3513 -2.5232,4.3737 -0.0139,0.0359 1.996,0.0405 17.403,0.0405 13.924,0 17.416,-0.007 17.405,-0.034 -0.007,-0.0188 -3.0266,-5.2409 -6.7095,-11.605 -3.6831,-6.364 -6.6962,-11.577 -6.6962,-11.584 0,-0.007 4.0132,-0.0131 8.9184,-0.0131 z"
         id="icon" /></g></g></svg>