<svg width="154" height="36" viewBox="0 0 34 36" fill="none" xmlns="http://www.w3.org/2000/svg">
<g clip-path="url(#clip0)">
<path d="M12.401 0.552182C13.8301 0.552182 15.1506 1.31458 15.8651 2.55218L18.4019 6.94597C19.1164 8.18357 19.1164 9.70836 18.4019 10.946L15.8651 15.3398C15.1506 16.5774 13.8301 17.3398 12.401 17.3398L7.32753 17.3398C5.89846 17.3398 4.57796 16.5774 3.86343 15.3398L1.32667 10.946C0.612142 9.70836 0.612143 8.18357 1.32667 6.94597L3.86343 2.55218C4.57796 1.31458 5.89847 0.552182 7.32753 0.552182L12.401 0.552182Z" fill="#3B7DFF"/>
<path d="M12.4506 18.7433C13.8797 18.7433 15.2002 19.5057 15.9147 20.7433L18.4515 25.1371C19.166 26.3747 19.166 27.8995 18.4515 29.1371L15.9147 33.5309C15.2002 34.7685 13.8797 35.5309 12.4506 35.5309L7.37709 35.5309C5.94802 35.5309 4.62752 34.7685 3.91299 33.5309L1.37623 29.1371C0.661702 27.8995 0.661703 26.3747 1.37623 25.1371L3.91299 20.7433C4.62752 19.5057 5.94803 18.7433 7.37709 18.7433L12.4506 18.7433Z" fill="#909AB8"/>
<path d="M28.2294 9.69064C29.6585 9.69064 30.979 10.453 31.6935 11.6906L34.2303 16.0844C34.9448 17.322 34.9448 18.8468 34.2303 20.0844L31.6935 24.4782C30.979 25.7158 29.6585 26.4782 28.2294 26.4782L23.1559 26.4782C21.7268 26.4782 20.4063 25.7158 19.6918 24.4782L17.155 20.0844C16.4405 18.8468 16.4405 17.322 17.155 16.0844L19.6918 11.6906C20.4063 10.453 21.7268 9.69064 23.1559 9.69064L28.2294 9.69064Z" fill="#15DB95"/>
<path opacity="0.5" d="M25.6925 18.0844L9.86426 8.94597L9.91378 27.1371L25.6925 18.0844Z" stroke="white" stroke-width="2"/>
<path d="M12.0228 10.1921C11.3346 11.3842 9.81029 11.7926 8.61824 11.1044C7.42619 10.4161 7.01776 8.89187 7.70599 7.69981C8.39423 6.50776 9.9185 6.09933 11.1106 6.78757C12.3026 7.4758 12.711 9.00007 12.0228 10.1921Z" fill="white"/>
<circle cx="25.6928" cy="18.0844" r="2.49231" transform="rotate(30 25.6928 18.0844)" fill="white"/>
<circle cx="9.91396" cy="27.1371" r="2.49231" transform="rotate(30 9.91396 27.1371)" fill="white"/>
<path d="M49.4423 24.2071C53.0632 24.2071 55.2102 21.9717 55.2102 18.2653C55.2102 14.5706 53.0632 12.3468 49.5236 12.3468H45.4153V24.2071H49.4423ZM47.5681 22.3481V14.2057H49.4017C51.8156 14.2057 53.0748 15.5493 53.0748 18.2653C53.0748 20.993 51.8156 22.3481 49.3379 22.3481H47.5681Z" fill="white"/>
<path d="M73.0194 14.1478H76.6925V24.2071H78.8279V14.1478H82.501V12.3468H73.0194V14.1478Z" fill="white"/>
<path d="M101.253 24.2071H108.64V22.406H103.406V12.3468H101.253V24.2071Z" fill="white"/>
<path d="M123.933 18.2769C123.933 14.4432 121.588 12.1846 118.472 12.1846C115.35 12.1846 113.012 14.4432 113.012 18.2769C113.012 22.1049 115.35 24.3692 118.472 24.3692C121.588 24.3692 123.933 22.1107 123.933 18.2769ZM121.768 18.2769C121.768 20.9756 120.41 22.4408 118.472 22.4408C116.54 22.4408 115.176 20.9756 115.176 18.2769C115.176 15.5782 116.54 14.1131 118.472 14.1131C120.41 14.1131 121.768 15.5782 121.768 18.2769Z" fill="white"/>
<path d="M137.197 16.1342H139.391C139.025 13.8061 137.006 12.1846 134.377 12.1846C131.267 12.1846 128.934 14.4663 128.934 18.2885C128.934 22.0412 131.162 24.3692 134.441 24.3692C137.383 24.3692 139.489 22.4813 139.489 19.4236V17.9989H134.667V19.6784H137.406C137.371 21.3694 136.24 22.4408 134.452 22.4408C132.462 22.4408 131.099 20.9524 131.099 18.2653C131.099 15.5956 132.485 14.1131 134.406 14.1131C135.839 14.1131 136.814 14.8775 137.197 16.1342Z" fill="white"/>
<path d="M144.618 24.2071H153.415V22.406H147.293L153.38 13.6845V12.3468H144.584V14.1478H150.711L144.618 22.8693V24.2071Z" fill="white"/>
<path d="M70.1444 24.2071H67.8465L64.6725 14.7791H64.4768L61.4114 24.2071H59.1135L63.2972 12.3468H65.9549L70.1444 24.2071Z" fill="white"/>
<path d="M96.4197 24.2071H94.1219L90.9478 14.7791H90.855L87.6867 24.2071H85.3889L89.5726 12.3468H92.2302L96.4197 24.2071Z" fill="white"/>
</g>
<defs>
<clipPath id="clip0">
<rect width="154" height="36" fill="white"/>
</clipPath>
</defs>
</svg>
