<svg width="250" height="250" viewBox="30 50 160 160" fill="none" xmlns="http://www.w3.org/2000/svg">
<path d="M144.425 124H157.825C158.872 124 159.919 123.162 159.919 121.906C159.919 121.697 159.919 121.278 159.709 121.069L136.678 58.2563C136.259 57.6281 135.631 57 134.794 57H121.394C120.347 57 119.3 57.8375 119.3 59.0938C119.3 59.3031 119.3 59.5125 119.509 59.7219L142.75 122.953C142.959 123.581 143.588 124 144.425 124Z" fill="#0073FF"/>
<path d="M142.122 191H155.522C156.569 191 157.616 190.163 157.616 188.906C157.616 188.697 157.616 188.488 157.406 188.278L109.669 58.2563C109.459 57.6281 108.622 57 107.784 57H94.3843C93.3374 57 92.2905 57.8375 92.2905 59.0938C92.2905 59.3031 92.2905 59.5125 92.4999 59.7219L140.237 189.744C140.447 190.581 141.284 191 142.122 191Z" fill="#0073FF"/>
<path d="M115.531 191H128.931C129.978 191 130.816 190.162 131.025 189.116C131.025 188.906 131.025 188.488 130.816 188.278L107.575 125.256C107.366 124.419 106.528 124 105.691 124H92.0812C91.0343 124 90.1968 125.047 90.1968 126.094C90.1968 126.303 90.1968 126.512 90.4062 126.722L113.437 189.744C114.066 190.581 114.694 191 115.531 191Z" fill="#0073FF"/>
<path d="M146.1 59.7219L156.987 89.2437C157.197 90.0812 158.034 90.5 158.872 90.5H172.062C173.109 90.5 174.156 89.6625 174.156 88.4062C174.156 88.1969 174.156 87.9875 173.947 87.7781L163.059 58.2563C162.85 57.6281 162.222 57 161.384 57H147.984C146.938 57 145.891 57.8375 145.891 59.0938C145.891 59.3031 145.891 59.5125 146.1 59.7219Z" fill="#0073FF"/>
<path d="M90.825 191H104.225C105.272 191 106.319 190.162 106.319 188.906C106.319 188.697 106.319 188.488 106.109 188.278L95.2219 158.756C95.0125 157.919 94.175 157.5 93.3375 157.5H79.9375C78.8906 157.5 77.8438 158.337 77.8438 159.594C77.8438 159.803 77.8438 160.012 78.0531 160.222L88.9406 189.744C89.15 190.581 89.9875 191 90.825 191Z" fill="#0073FF"/>
</svg>
