<svg width="256" height="265" viewBox="0 0 256 265" fill="none" xmlns="http://www.w3.org/2000/svg">
<g clip-path="url(#clip0_348_5)">
<path d="M233.56 141.927L233.73 141.94L251.622 143.81C252.876 143.945 254.03 144.556 254.847 145.517L254.98 145.68L254.81 145.765C255.224 146.287 255.528 146.887 255.703 147.53C255.878 148.173 255.922 148.845 255.83 149.505C251.921 180.582 237.191 209.289 214.226 230.588C190.397 252.688 159.097 264.968 126.597 264.968C110.814 264.993 95.1632 262.087 80.441 256.398L79.639 256.086C79.0439 255.866 78.4993 255.528 78.0378 255.093C77.5763 254.658 77.2073 254.134 76.953 253.553L76.876 253.366C76.3756 252.203 76.3458 250.89 76.793 249.706L83.855 232.476C84.314 231.308 85.2081 230.364 86.3491 229.842C87.4902 229.32 88.7893 229.26 89.973 229.677L90.136 229.737C126.233 243.676 167.116 235.826 195.485 209.51C213.541 192.918 225.185 170.503 228.376 146.19C228.538 144.985 229.14 143.883 230.065 143.095C230.99 142.307 232.174 141.888 233.389 141.92L233.56 141.927ZM43.48 206.237L43.731 206.235L43.984 206.237C52.104 206.33 58.642 212.896 58.73 220.986V221.239C58.73 221.323 58.73 221.407 58.728 221.491C58.587 229.775 51.758 236.377 43.474 236.236C35.19 236.095 28.589 229.266 28.729 220.982C28.868 212.867 35.425 206.367 43.48 206.237ZM4.93 147.082H151.246C152.535 147.093 153.769 147.604 154.689 148.508C155.608 149.412 156.141 150.637 156.174 151.926L156.176 152.097V170.413C156.187 171.702 155.696 172.945 154.808 173.879C153.92 174.814 152.704 175.367 151.416 175.423L151.246 175.428H4.93C3.64074 175.417 2.40618 174.905 1.48651 174.002C0.566844 173.098 0.0339009 171.873 0 170.584L0 151.925C0.0334532 150.666 0.542696 149.467 1.42508 148.57C2.30747 147.672 3.49739 147.142 4.755 147.087L4.93 147.082ZM169.56 7.31075C170.187 7.53674 170.762 7.88645 171.252 8.3391C171.741 8.79176 172.134 9.33813 172.408 9.94575C172.916 11.1847 172.916 12.5738 172.408 13.8128L166.033 30.8118C165.609 32.0221 164.722 33.0149 163.567 33.5724C162.412 34.1299 161.083 34.2066 159.871 33.7858C143.451 28.0559 125.832 26.6529 108.712 29.7122C91.5922 32.7714 75.5493 40.1897 62.13 51.2518C45.1215 65.4886 33.0447 84.7341 27.623 106.242C27.3504 107.298 26.7353 108.234 25.874 108.903C25.0127 109.572 23.9537 109.937 22.863 109.94H21.758L4.25 105.733C3.60405 105.581 2.99578 105.299 2.46229 104.905C1.92881 104.51 1.48128 104.011 1.147 103.438H1.062C0.711212 102.865 0.481293 102.226 0.386368 101.561C0.291442 100.896 0.333514 100.218 0.51 99.5697C7.46358 72.038 23.0216 47.4436 44.92 29.3657C79.739 0.699749 127.019 -7.66625 169.56 7.31075ZM104.753 80.7448H251.07C252.329 80.7551 253.538 81.2429 254.451 82.1097C255.365 82.9765 255.916 84.1577 255.992 85.4147L256 85.5887V103.906C256.011 105.195 255.52 106.438 254.632 107.373C253.744 108.307 252.528 108.861 251.24 108.916L251.07 108.921H104.754C103.472 108.899 102.249 108.383 101.339 107.481C100.428 106.579 99.9013 105.36 99.868 104.079L99.866 103.906V85.7588C99.855 84.4772 100.339 83.241 101.218 82.3079C102.096 81.3748 103.301 80.8169 104.581 80.7507L104.753 80.7448ZM206.325 24.8617L206.577 24.8598L206.83 24.8617C214.95 24.9547 221.488 31.5208 221.576 39.6098V39.8628C221.576 39.9478 221.576 40.0328 221.574 40.1158C221.434 48.3998 214.604 55.0008 206.32 54.8598C198.036 54.7198 191.435 47.8898 191.576 39.6068C191.714 31.4908 198.27 24.9907 206.325 24.8617Z" fill="#4FB58B"/>
</g>
<defs>
<clipPath id="clip0_348_5">
<rect width="256" height="265" fill="white"/>
</clipPath>
</defs>
</svg>
