<?xml version="1.0" encoding="UTF-8"?>
<svg width="180px" height="31px" viewBox="0 0 44 41" version="1.1" xmlns="http://www.w3.org/2000/svg" xmlns:xlink="http://www.w3.org/1999/xlink">
    <!-- Generator: Sketch 52.3 (67297) - http://www.bohemiancoding.com/sketch -->
    <title>Group 18</title>
    <desc>Created with Sketch.</desc>
    <defs>
        <polygon id="path-1" points="9.80913904e-05 0.0737285777 43.5223452 0.0737285777 43.5223452 30.9615084 9.80913904e-05 30.9615084"></polygon>
    </defs>
    <g id="Website" stroke="none" stroke-width="1" fill="none" fill-rule="evenodd">
        <g transform="translate(-148.000000, -52.000000)" id="Group-18">
            <g transform="translate(148.000000, 52.000000)">
                <g id="Group">
                    <g id="Group-3" transform="translate(0.000000, 0.155355)">
                        <mask id="mask-2" fill="white">
                            <use xlink:href="#path-1"></use>
                        </mask>
                        <g id="Clip-2"></g>
                        <path d="M29.9253123,11.7175835 L36.594221,6.73851428 L36.594221,9.7417806 C36.594221,9.7417806 43.4823996,10.7689573 43.5223452,18.9241613 C43.4036578,26.3778577 36.7631997,27.9981767 33.7592307,28.0583796 C27.3561473,28.0374519 23.7070134,23.5916087 23.4825707,19.0987498 C23.2581279,14.6056042 23.3041085,10.9323653 23.205825,9.02364561 C23.1075415,7.11463927 21.4755182,4.43675548 18.1729629,4.60475033 C14.6893591,4.4467893 13.0866484,8.16131027 12.8501358,9.02364561 C12.6917902,10.1368265 12.5090174,11.4790652 12.5090174,12.6395484 C11.3480077,12.6395484 10.0039378,12.6318081 8.76820963,13.0612556 C7.63248925,13.4218999 4.07502909,15.7239454 4.31240384,18.924448 C4.54949122,22.1246639 6.72322324,23.769924 8.76820963,23.8883231 C10.2806834,24.0070089 14.3269746,23.8883231 16.8947028,23.8883231 L16.8947028,20.505205 L22.9687376,25.9825251 L16.8947028,30.9615944 L16.8947028,28.0583796 C16.8947028,28.0583796 11.5244581,28.0790206 8.76820963,28.0583796 C6.01196111,28.0374519 0.201452425,26.7235946 0.00402330093,18.9241613 C-0.193693202,11.1250146 7.13963488,8.82010236 8.05436109,8.50360694 C8.33570478,7.62407076 10.1841242,0.0551286857 18.1729629,0.0737629269 C26.6049396,0.1792614 27.828023,7.56788136 27.8696929,9.02335893 C27.9096386,10.4077397 28.2292036,18.8347169 28.2383997,18.9238746 C28.4277823,20.7460167 30.0833706,23.4531419 33.7592307,23.5322658 C36.7235414,23.5322658 39.0964268,21.5748104 39.2136773,18.7510062 C39.1539025,15.4186305 36.5939336,14.3647925 36.5939336,14.3647925 L36.5939336,17.2889349 L29.9253123,11.7175835 Z" id="Fill-1" fill="#3391EF" mask="url(#mask-2)"></path>
                    </g>
                    </g>
            </g>
        </g>
    </g>
</svg>