<svg width="720" height="720" viewBox="0 0 720 720" fill="none" xmlns="http://www.w3.org/2000/svg">
<rect width="720" height="720" rx="130" fill="#F44338"/>
<path d="M449.383 174H541.439C543.179 174 544.848 174.691 546.078 175.92C547.308 177.149 548 178.817 548 180.555V268.68C548.008 269.541 547.846 270.395 547.524 271.194C547.202 271.992 546.725 272.719 546.122 273.334C545.518 273.948 544.8 274.438 544.007 274.775C543.214 275.112 542.362 275.289 541.501 275.297H515.396C513.656 275.297 511.987 274.607 510.756 273.377C509.526 272.148 508.835 270.481 508.835 268.742V241.532L231.322 506.479H288.406C289.269 506.479 290.123 506.649 290.92 506.979C291.717 507.31 292.441 507.794 293.051 508.404C293.66 509.015 294.143 509.739 294.472 510.536C294.801 511.333 294.969 512.187 294.967 513.049V539.054C294.967 540.793 294.276 542.46 293.045 543.689C291.815 544.919 290.146 545.609 288.406 545.609H179.561C177.821 545.609 176.152 544.919 174.922 543.689C173.691 542.46 173 540.793 173 539.054V506.68L480.579 213.084H449.383C448.522 213.084 447.668 212.915 446.872 212.585C446.076 212.256 445.353 211.773 444.744 211.164C444.135 210.556 443.651 209.833 443.322 209.038C442.992 208.242 442.822 207.39 442.822 206.529V180.555C442.822 179.694 442.992 178.842 443.322 178.047C443.651 177.251 444.135 176.529 444.744 175.92C445.353 175.311 446.076 174.828 446.872 174.499C447.668 174.17 448.522 174 449.383 174ZM212.134 212.095H386.992C387.853 212.095 388.706 211.925 389.502 211.596C390.298 211.266 391.022 210.783 391.631 210.175C392.24 209.566 392.723 208.843 393.053 208.048C393.383 207.253 393.553 206.4 393.553 205.539V180.555C393.555 179.696 393.387 178.846 393.06 178.051C392.733 177.257 392.253 176.535 391.646 175.926C391.04 175.318 390.32 174.834 389.526 174.504C388.733 174.173 387.882 174.002 387.022 174H179.561C177.821 174 176.152 174.691 174.922 175.92C173.691 177.149 173 178.817 173 180.555V269.732C172.996 270.595 173.163 271.451 173.491 272.25C173.818 273.049 174.301 273.775 174.911 274.387C175.52 274.999 176.245 275.485 177.043 275.816C177.841 276.147 178.697 276.318 179.561 276.318H205.604C207.337 276.306 208.996 275.61 210.219 274.382C211.442 273.155 212.13 271.495 212.134 269.763V212.095ZM508.835 506.479H350.658C349.795 506.479 348.941 506.649 348.144 506.979C347.347 507.31 346.623 507.794 346.014 508.404C345.404 509.015 344.921 509.739 344.592 510.536C344.263 511.333 344.095 512.187 344.097 513.049V539.054C344.097 539.915 344.267 540.767 344.597 541.563C344.926 542.358 345.41 543.081 346.019 543.689C346.628 544.298 347.352 544.781 348.148 545.11C348.944 545.44 349.797 545.609 350.658 545.609H541.439C543.179 545.609 544.848 544.919 546.078 543.689C547.308 542.46 548 540.793 548 539.054V447.095C547.992 445.359 547.298 443.696 546.069 442.469C544.84 441.241 543.176 440.548 541.439 440.54H515.396C513.656 440.54 511.987 441.23 510.756 442.46C509.526 443.689 508.835 445.356 508.835 447.095V506.479Z" fill="white"/>
</svg>
